<svg width="60" height="60" viewBox="0 0 60 60" fill="none" xmlns="http://www.w3.org/2000/svg">
<g opacity="0.46">
<path fill-rule="evenodd" clip-rule="evenodd" d="M22.5001 2.5C21.1193 2.5 20.0001 3.61929 20.0001 5C20.0001 6.38071 21.1193 7.5 22.5001 7.5H37.5001C38.8808 7.5 40.0001 6.38071 40.0001 5C40.0001 3.61929 38.8808 2.5 37.5001 2.5H22.5001ZM36.6972 16.332C32.9567 14.7826 28.7947 14.5781 24.9203 15.7534C21.0459 16.9287 17.6989 19.411 15.4496 22.7774C13.2002 26.1438 12.1877 30.186 12.5845 34.2152C12.9814 38.2444 14.763 42.0114 17.6259 44.8742C20.4888 47.7371 24.2558 49.5188 28.285 49.9156C32.3142 50.3125 36.3564 49.2999 39.7228 47.0506C43.0891 44.8013 45.5715 41.4543 46.7467 37.5799C47.922 33.7055 47.7176 29.5435 46.1682 25.8029C45.6398 24.5273 46.2456 23.0649 47.5212 22.5365C48.7968 22.0081 50.2592 22.6139 50.7876 23.8895C52.7796 28.6988 53.0425 34.0499 51.5314 39.0313C50.0204 44.0126 46.8288 48.3159 42.5006 51.208C38.1724 54.1 32.9753 55.4018 27.7949 54.8915C22.6145 54.3813 17.7712 52.0906 14.0904 48.4098C10.4095 44.7289 8.11885 39.8857 7.60862 34.7053C7.0984 29.5248 8.4002 24.3278 11.2922 19.9995C14.1842 15.6713 18.4875 12.4798 23.4689 10.9687C28.4502 9.45765 33.8014 9.72054 38.6107 11.7126C39.8863 12.241 40.492 13.7034 39.9637 14.979C39.4353 16.2546 37.9729 16.8604 36.6972 16.332ZM28.2321 34.2676C27.2557 33.2913 27.2557 31.7083 28.2321 30.732L45.9097 13.0544C46.886 12.078 48.469 12.078 49.4453 13.0544C50.4216 14.0307 50.4216 15.6136 49.4453 16.5899L31.7676 34.2676C30.7913 35.2439 29.2084 35.2439 28.2321 34.2676Z" fill="white" fill-opacity="0.96"/>
</g>
</svg>
