<svg width="78" height="113" viewBox="0 0 78 113" fill="none" xmlns="http://www.w3.org/2000/svg">
<circle cx="23.3712" cy="23.3712" r="23.3712" transform="matrix(-0.866025 -0.5 0.866025 -0.5 41.1689 92.0991)" fill="#F6B34E"/>
<rect x="69.792" y="68.8091" width="3.59004" height="10.3485" transform="rotate(179.988 69.792 68.8091)" fill="#F6B34E"/>
<rect x="15.7139" y="68.7266" width="3.18448" height="10.8453" transform="rotate(-179.648 15.7139 68.7266)" fill="#F6B34E"/>
<circle cx="23.3712" cy="23.3712" r="23.3712" transform="matrix(-0.866025 -0.5 0.866025 -0.5 41.2114 81.2764)" fill="url(#paint0_linear_215_315)"/>
<path d="M33.1145 62.5374L36.6037 64.5519L39.1054 63.1076L40.9817 64.1908L38.48 65.6352L42.0022 67.6687L44.5039 66.2243L47.2031 67.7827L51.3178 65.4071L48.6185 63.8487L55.8274 59.6867L52.3053 57.6532L45.0964 61.8152L43.2859 60.77L44.9318 59.8197C51.6798 55.9237 52.7003 52.3698 47.631 49.4431C42.7263 46.6114 37.1962 46.9535 29.9215 51.1535L24.161 54.4794L35.6162 61.093L33.1145 62.5374ZM33.8716 53.016C37.8875 50.6974 40.6196 50.2983 43.3188 51.8567C46.2485 53.5481 45.4585 55.3726 41.6071 57.5962L39.6979 58.6984L31.8636 54.1753L33.8716 53.016Z" fill="#D17E00"/>
<defs>
<linearGradient id="paint0_linear_215_315" x1="23.3712" y1="0" x2="23.3712" y2="46.7423" gradientUnits="userSpaceOnUse">
<stop stop-color="#F9D97B"/>
<stop offset="1" stop-color="#F6B34E"/>
</linearGradient>
</defs>
</svg>
